<svg width="80" height="80" viewBox="0 0 80 80" fill="none" xmlns="http://www.w3.org/2000/svg">
<g clip-path="url(#clip0_43_1351)">
<path d="M68.0359 73.5205C68.0606 73.7619 68.4409 73.7642 68.4161 73.5211C68.3086 72.4683 68.954 71.4787 69.9684 71.1579C70.7647 70.9062 71.5678 71.2045 71.8042 72.0491C71.9084 72.4215 71.9122 72.7756 71.81 73.1159C71.8068 73.1159 71.8039 73.1151 71.8007 73.1151C71.4523 73.1095 71.1194 73.2028 70.8024 73.3406C70.5594 73.4462 70.2206 73.6134 70.1701 73.9053C70.1123 74.2399 70.4986 74.4612 70.7794 74.5029C71.1263 74.5545 71.4438 74.3588 71.671 74.1122C71.8387 73.9302 71.9665 73.732 72.0622 73.5234C72.1137 73.532 72.1653 73.5395 72.2162 73.5527C72.9111 73.732 73.5068 74.3151 73.6039 75.0418C73.6898 75.6852 73.1894 76.0708 72.6025 76.1874C72.4499 75.9747 72.2601 75.7906 72.0404 75.6653C71.6015 75.4147 71.1352 75.5261 70.9572 76.0193C70.9365 76.0769 70.9575 76.1649 71.0058 76.2043C71.3954 76.5221 71.9095 76.6388 72.4088 76.5945C72.5625 76.8715 72.6439 77.1915 72.598 77.5028C72.5197 78.0324 72.0536 78.5379 71.5303 78.6515C70.4753 78.8804 69.4432 77.7544 69.1352 76.8573C69.0561 76.627 68.6888 76.7259 68.7685 76.9576C69.0236 77.7008 69.5715 78.3707 70.2566 78.7595C70.8316 79.0858 71.5426 79.1845 72.1222 78.8121C72.7114 78.4337 73.0757 77.7533 72.9663 77.0532C72.9383 76.8745 72.8797 76.6956 72.8 76.5246C72.9202 76.4923 73.0383 76.4538 73.1499 76.4024C73.9248 76.0455 74.1619 75.2572 73.8403 74.4877C73.5542 73.8035 72.9119 73.3061 72.1911 73.1615C72.2703 72.8488 72.2812 72.5174 72.222 72.1763C72.1276 71.6328 71.8332 71.1115 71.3249 70.861C70.8618 70.6329 70.3155 70.642 69.8325 70.8034C68.6872 71.1854 67.9121 72.3094 68.0359 73.5205ZM72.1348 76.2226C71.859 76.2108 71.594 76.1402 71.3854 76.0107C71.5742 75.7675 71.9483 76.0318 72.1348 76.2226ZM71.6417 73.5048C71.6274 73.5298 71.6153 73.555 71.5998 73.5797C71.4596 73.8038 71.2413 74.0838 70.9608 74.1272C70.8275 74.1479 70.7055 74.1002 70.5972 74.0249C70.5174 73.9696 70.5374 73.9625 70.6011 73.896C70.7699 73.7197 71.0711 73.6281 71.2988 73.5628C71.4115 73.5305 71.5263 73.5139 71.6417 73.5048Z" fill="black"/>
<path d="M67.744 74.4714H67.7436L61.053 74.4594C60.9399 74.4589 60.8483 74.3673 60.8486 74.2542C60.8491 74.1414 60.9407 74.0498 61.0533 74.0498H61.0538L67.7443 74.0618C67.8575 74.0623 67.949 74.1539 67.9487 74.267C67.9483 74.3798 67.8567 74.4714 67.744 74.4714Z" fill="black"/>
<path d="M67.6305 76.2732H67.6301L63.4393 76.2655C63.3261 76.2651 63.2344 76.1735 63.2349 76.0603C63.2353 75.9475 63.3269 75.856 63.4396 75.856H63.44L67.6308 75.8636C67.744 75.8641 67.8355 75.9557 67.8352 76.0688C67.8349 76.1816 67.7432 76.2732 67.6305 76.2732Z" fill="black"/>
<path d="M24.1892 49.5069C17.1474 57.056 13.7993 67.093 14.9775 77.3849C15.2241 79.5395 18.604 79.3582 18.3557 77.1896C17.2735 67.7352 20.2428 58.6972 26.7162 51.7576C28.2043 50.1618 25.6752 47.9137 24.1892 49.5069Z" fill="black"/>
<path d="M18.4644 74.9518C18.4644 74.9518 20.6212 73.2081 16.3146 73.0665C11.6972 72.9148 14.6012 74.8611 14.6012 74.8611L13.906 75.2489C13.906 75.2489 8.94931 71.2983 7.06463 75.1778C5.17979 79.0573 10.5416 79.7625 13.8305 79.844C17.1195 79.9252 20.6454 80.6978 18.4644 74.9518Z" fill="#FF558B"/>
<path d="M16.1488 80.0003C15.7154 80.0003 15.2589 79.9797 14.7956 79.9589C14.4746 79.9444 14.1506 79.9298 13.8287 79.9219C11.2283 79.8575 7.91568 79.4309 6.90029 77.7634C6.46541 77.0491 6.49713 76.1675 6.99436 75.1435C7.44127 74.2237 8.09773 73.6601 8.9453 73.4679C10.096 73.2074 11.3985 73.6899 12.2887 74.1412C13.1147 74.56 13.7488 75.0296 13.9132 75.1554L14.4554 74.8529C14.1849 74.6524 13.4903 74.0808 13.6444 73.6029C13.7951 73.1352 14.6689 72.9352 16.3173 72.9883C17.9541 73.0422 18.8739 73.3374 19.0513 73.8664C19.2122 74.3461 18.712 74.8377 18.557 74.9755C19.3188 77.0008 19.4175 78.3609 18.8589 79.1327C18.3414 79.8476 17.33 80.0003 16.1488 80.0003ZM9.63519 73.5502C9.41268 73.5502 9.19328 73.572 8.97983 73.6203C8.18086 73.8014 7.56018 74.3369 7.13515 75.2116C6.66246 76.1847 6.62823 77.0158 7.03389 77.682C7.47612 78.4081 8.94733 79.6446 13.8327 79.7654C14.1556 79.7736 14.4807 79.7882 14.8026 79.8026C16.4851 79.8783 18.0743 79.95 18.7323 79.0407C19.2624 78.3086 19.151 76.9799 18.3914 74.9794L18.3714 74.9265L18.4153 74.891C18.4217 74.8858 19.0544 74.3662 18.903 73.9157C18.7966 73.5993 18.2609 73.2085 16.312 73.1444C14.3848 73.0808 13.8787 73.3848 13.7929 73.6506C13.668 74.0379 14.3654 74.6086 14.6447 74.7958L14.7506 74.8668L13.8985 75.3423L13.8574 75.3096C13.8329 75.2902 11.6233 73.5502 9.63519 73.5502Z" fill="black"/>
<path d="M17.0164 75.3119C16.8781 75.3119 16.732 75.3055 16.5781 75.2906L16.5931 75.135C17.7094 75.2431 18.4216 74.8859 18.4286 74.8823L18.4997 75.0215C18.4734 75.035 17.92 75.3119 17.0164 75.3119Z" fill="black"/>
<path d="M15.3419 75.1702C15.2651 75.1702 15.0028 75.1513 14.5659 74.9305L14.6364 74.791C15.1048 75.0279 15.3492 75.0141 15.352 75.0138L15.3651 75.1695C15.3634 75.1696 15.3556 75.1702 15.3419 75.1702Z" fill="black"/>
<path d="M13.9113 75.2432C14.0738 75.3204 14.2184 75.4168 14.3562 75.52C14.4952 75.6221 14.6238 75.7354 14.7499 75.8511C14.8727 75.9705 14.9935 76.0921 15.1035 76.2249C15.2148 76.3566 15.3196 76.4949 15.4065 76.6524L15.3957 76.6638L14.6427 75.9649L13.9004 75.2546L13.9113 75.2432Z" fill="black"/>
<path d="M13.9139 75.248C13.9791 75.3859 14.018 75.5254 14.0475 75.6657C14.0786 75.8059 14.0944 75.9471 14.1067 76.0885C14.1142 76.2304 14.1186 76.3724 14.1075 76.5155C14.0981 76.6585 14.0794 76.8023 14.0347 76.9477L14.0191 76.9488L13.9509 76.0996L13.8984 75.2493L13.9139 75.248Z" fill="black"/>
<path d="M9.48163 74.174C9.3324 74.252 9.18552 74.3278 9.05207 74.4253C8.98175 74.467 8.91753 74.5183 8.85049 74.5636C8.78627 74.6134 8.72501 74.6665 8.66282 74.7172C8.42124 74.9289 8.20809 75.17 8.06558 75.4513C7.90948 75.7229 7.80056 76.0256 7.75884 76.345L7.73462 76.4639L7.72618 76.5851L7.70962 76.8298C7.69962 76.9944 7.71618 77.1592 7.70665 77.3302L7.69133 77.3332C7.67055 77.1671 7.64008 77.0016 7.62742 76.8347L7.62398 76.5831L7.62305 76.4573L7.63805 76.3323L7.6693 76.0823L7.73368 75.8385C7.7504 75.7555 7.78869 75.6799 7.81994 75.6019C7.85197 75.5241 7.8826 75.4455 7.92917 75.3749C8.09199 75.0803 8.32092 74.8237 8.58828 74.6206C8.85658 74.4189 9.15645 74.2585 9.47741 74.1587L9.48163 74.174Z" fill="white"/>
<path d="M53.4151 68.3092C50.8096 69.2246 48.2291 70.2145 45.6064 71.081C43.1257 71.9006 40.2108 72.718 37.5857 72.1454C31.1049 70.7319 36.5895 62.9702 38.551 59.8296C39.7079 57.9773 36.7814 56.2766 35.629 58.1216C32.8444 62.5801 27.7749 70.6226 34.2011 74.4326C40.2483 78.0179 48.4882 73.6191 54.3146 71.5721C56.3557 70.855 55.4772 67.5846 53.4151 68.3092Z" fill="black"/>
<path d="M49.9786 69.087C49.9786 69.087 47.5479 67.7514 49.0479 71.7906C50.6562 76.1214 51.3576 72.6968 51.3576 72.6968L51.9799 73.1932C51.9799 73.1932 50.2008 79.2768 54.5051 79.5519C58.8095 79.8269 57.4314 74.5974 56.2611 71.5228C55.0909 68.4482 54.4705 64.8923 49.9786 69.087Z" fill="#FF558B"/>
<path d="M54.8201 79.6405C54.7163 79.6405 54.6097 79.6371 54.5002 79.6301C53.4799 79.5649 52.7096 79.171 52.2108 78.459C51.5335 77.4925 51.4871 76.1043 51.5676 75.1097C51.6423 74.1867 51.837 73.4219 51.8909 73.2222L51.4054 72.835C51.3223 73.1613 51.0565 74.0205 50.556 74.059C50.0644 74.097 49.5489 73.3635 48.9749 71.8179C48.4049 70.2826 48.3297 69.3194 48.7519 68.955C49.1351 68.624 49.7793 68.9011 49.9656 68.9923C51.5512 67.5205 52.7724 66.9144 53.6989 67.1386C54.8715 67.4231 55.4209 68.9597 56.0025 70.5864C56.1105 70.8887 56.2199 71.1942 56.3344 71.495C57.2596 73.926 58.1194 77.1536 56.9607 78.7248C56.5119 79.3332 55.7928 79.6405 54.8201 79.6405ZM51.3068 72.5564L52.0698 73.165L52.055 73.2153C52.0453 73.2488 51.0901 76.5878 52.3388 78.3695C52.8091 79.0403 53.5396 79.4119 54.5103 79.474C55.5884 79.5419 56.3721 79.2597 56.8349 78.632C57.3395 77.9477 57.9266 76.1177 56.1881 71.5507C56.0734 71.2488 55.9637 70.9423 55.8553 70.639C55.2882 69.0531 54.7525 67.5552 53.6618 67.2903C52.7833 67.0772 51.5959 67.6838 50.032 69.1439L49.9908 69.1825L49.9412 69.1553C49.9339 69.1514 49.2137 68.7628 48.854 69.0733C48.6013 69.2916 48.4427 69.9355 49.1215 71.7635C49.7925 73.5707 50.2695 73.9279 50.5441 73.903C50.9496 73.8719 51.2137 73.0103 51.2813 72.6811L51.3068 72.5564Z" fill="black"/>
<path d="M50.857 70.7494C50.5352 69.6796 49.9338 69.1514 49.9277 69.1463L50.0296 69.0278C50.0555 69.0502 50.6709 69.5878 51.0065 70.7044L50.857 70.7494Z" fill="black"/>
<path d="M51.4355 72.7034L51.2798 72.6909C51.3217 72.1666 51.2159 71.9462 51.2148 71.9441L51.3541 71.873C51.3592 71.883 51.4816 72.1271 51.4355 72.7034Z" fill="black"/>
<path d="M51.9727 73.1903C51.9825 73.0106 52.017 72.8404 52.0605 72.6736C52.1023 72.5062 52.1584 72.3443 52.2178 72.1837C52.2817 72.0248 52.3486 71.8671 52.4298 71.7148C52.5095 71.562 52.598 71.4125 52.7106 71.2725L52.7252 71.2781L52.3634 72.2398L51.9872 73.1959L51.9727 73.1903Z" fill="black"/>
<path d="M51.9766 73.1865C52.0794 73.074 52.1937 72.9851 52.3125 72.9047C52.4305 72.8229 52.5552 72.7549 52.6814 72.6897C52.8098 72.6291 52.9397 72.5713 53.0762 72.5274C53.2122 72.4819 53.3522 72.4447 53.5039 72.4312L53.5108 72.4452L52.7506 72.8299L51.9834 73.2005L51.9766 73.1865Z" fill="black"/>
<path d="M52.6614 77.6953C52.7902 77.8039 52.916 77.9111 53.0566 77.9978C53.1218 78.0471 53.1935 78.0872 53.261 78.1319C53.3315 78.1725 53.4038 78.2089 53.4743 78.2475C53.7617 78.391 54.0656 78.4969 54.38 78.5223C54.6905 78.5638 55.0119 78.5501 55.3232 78.4677L55.4424 78.4451L55.5578 78.4069L55.7906 78.3296C55.9467 78.2765 56.093 78.1988 56.2547 78.1427L56.2633 78.1558C56.1173 78.2379 55.9758 78.3288 55.8262 78.4038L55.5946 78.5023L55.4785 78.5509L55.3571 78.5843L55.114 78.6501L54.8639 78.6829C54.781 78.6988 54.6964 78.6921 54.6124 78.6926C54.5281 78.6924 54.4439 78.6938 54.3609 78.6774C54.0267 78.6382 53.7024 78.5235 53.4132 78.353C53.1249 78.1811 52.863 77.9642 52.6489 77.705L52.6614 77.6953Z" fill="white"/>
<path d="M71.4582 32.6474C71.3761 32.2274 70.7425 32.4394 70.8239 32.8568C71.1278 34.4144 71.3678 36.0087 71.2425 37.5997C71.1255 39.0852 70.3182 40.3158 69.3835 41.4329C68.4759 42.5175 67.5714 43.5542 66.9822 44.8595C66.4282 46.0864 66.2184 47.5248 66.379 48.8602C66.5587 50.3546 67.0934 51.7856 67.48 53.2331C67.8885 54.7624 67.9854 56.2457 67.7327 57.8114C67.5213 59.1214 66.9834 60.3305 65.9376 61.1847C64.9087 62.0249 63.6516 62.3701 62.3493 62.0672C60.8317 61.7144 59.4905 60.7478 58.378 59.6906C57.7567 59.1001 57.2101 58.4354 56.7365 57.7211C56.2652 57.0103 55.9571 56.2351 55.6414 55.4473C55.4825 55.0507 54.8468 55.2564 55.0072 55.6567C55.2941 56.3727 55.5689 57.095 55.9686 57.7578C56.3648 58.4148 56.8409 59.0329 57.3567 59.6002C58.3387 60.6798 59.5494 61.646 60.8809 62.2569C62.1208 62.8259 63.5396 63.0839 64.8461 62.5801C66.0005 62.1349 66.9744 61.303 67.6074 60.2415C68.3585 58.9818 68.5529 57.4034 68.5606 55.9602C68.5692 54.3241 68.0352 52.7684 67.595 51.2125C67.1414 49.6092 66.8139 48.0644 67.1741 46.4046C67.5067 44.8709 68.4264 43.5572 69.4394 42.3933C70.4914 41.1848 71.6079 39.8109 71.8466 38.1756C72.1154 36.3353 71.8108 34.4546 71.4582 32.6474Z" fill="black"/>
<path d="M70.6486 29.4135L70.7 31.1896L70.1925 31.2043L70.1411 29.4282C70.1402 29.3938 70.1672 29.3651 70.2016 29.3641L70.5846 29.3531C70.619 29.3521 70.6475 29.3791 70.6486 29.4135Z" fill="#FFD200"/>
<path d="M70.1169 31.285L70.063 29.4306C70.061 29.3532 70.1221 29.2885 70.1993 29.286L70.5823 29.275C70.6546 29.2729 70.7243 29.3342 70.727 29.4112L70.7807 31.2657L70.1169 31.285ZM70.2198 29.4418L70.2685 31.1242L70.6198 31.1142L70.5712 29.4317L70.2198 29.4418Z" fill="black"/>
<path d="M71.9235 29.3764L71.9749 31.1525L71.4674 31.1672L71.416 29.3911C71.4151 29.3567 71.4421 29.328 71.4765 29.327L71.8595 29.3159C71.8938 29.3149 71.9224 29.342 71.9235 29.3764Z" fill="#FFD200"/>
<path d="M71.3917 31.2479L71.338 29.3936C71.3369 29.3562 71.3503 29.3204 71.3761 29.2931C71.4017 29.2657 71.4366 29.2503 71.4741 29.249L71.8571 29.2379C71.9332 29.2345 71.9993 29.2972 72.0018 29.3742V29.3743L72.0555 31.2287L71.3917 31.2479ZM71.4947 29.4048L71.5434 31.0871L71.8947 31.0771L71.846 29.3947L71.4947 29.4048Z" fill="black"/>
<path d="M69.5837 30.6949L69.6592 33.2959L72.5016 33.2134L72.4261 30.6124L69.5837 30.6949Z" fill="black"/>
<path d="M69.5859 33.379L69.5059 30.6217L72.5045 30.5347L72.5845 33.2919L69.5859 33.379ZM69.6668 30.7734L69.7376 33.2182L72.4236 33.1403L72.3528 30.6956L69.6668 30.7734Z" fill="black"/>
<path d="M66.7707 45.5021C66.8085 46.259 66.2287 46.8997 65.4752 46.9373C65.442 46.939 65.4085 46.9406 65.3751 46.939C65.3718 46.9392 65.3718 46.9392 65.3718 46.9392C65.1676 46.9326 64.9744 46.8822 64.7997 46.7973C64.7003 46.7487 64.607 46.6867 64.5231 46.6139C64.2441 46.3804 64.0595 46.0319 64.0398 45.6385C64.0225 45.2917 64.1367 44.9684 64.3414 44.7175C64.5739 44.4217 64.9319 44.2266 65.3388 44.2063C66.0923 44.1687 66.733 44.7484 66.7707 45.5021Z" fill="#FFD200"/>
<path d="M65.4039 47.0177C65.3931 47.0177 65.3821 47.0175 65.3711 47.0169C65.1594 47.0105 64.9562 46.96 64.7654 46.8675C64.6601 46.8159 64.5614 46.7504 64.4718 46.6726C64.1682 46.4189 63.9818 46.043 63.9618 45.6424C63.944 45.2881 64.0573 44.9422 64.2807 44.6679C64.5339 44.346 64.9183 44.1491 65.3347 44.1284C65.7205 44.1088 66.0896 44.2409 66.3756 44.4995C66.6614 44.7581 66.8294 45.1128 66.8486 45.498C66.8884 46.2949 66.274 46.9756 65.4789 47.0153C65.4541 47.0166 65.4291 47.0177 65.4039 47.0177ZM65.4077 44.2827C65.386 44.2827 65.3644 44.2832 65.3427 44.2843C64.9712 44.3029 64.6287 44.4782 64.4026 44.7656C64.2029 45.0108 64.102 45.3191 64.1177 45.6344C64.1355 45.9916 64.3017 46.3268 64.5731 46.5537C64.6536 46.6236 64.7408 46.6814 64.8339 46.7268C65.0045 46.8097 65.1864 46.8548 65.3741 46.8608C65.4097 46.8628 65.4407 46.8606 65.4711 46.859C66.1802 46.8234 66.7283 46.2165 66.6926 45.5057C66.6583 44.8186 66.0882 44.2827 65.4077 44.2827Z" fill="black"/>
<path d="M71.1798 55.3946C71.2177 56.1516 70.6379 56.7922 69.8844 56.8299C69.8511 56.8316 69.8177 56.8332 69.7843 56.8316C69.781 56.8318 69.781 56.8318 69.781 56.8318C69.5767 56.8252 69.3838 56.7747 69.2089 56.6899C69.1095 56.6413 69.0162 56.5793 68.9323 56.5064C68.6532 56.273 68.4687 55.9245 68.449 55.5311C68.4316 55.1843 68.5459 54.861 68.7506 54.61C68.9831 54.3142 69.3411 54.1192 69.748 54.0989C70.5015 54.0612 71.1422 54.641 71.1798 55.3946Z" fill="#FFD200"/>
<path d="M69.8132 56.9103C69.8023 56.9103 69.7912 56.9101 69.7803 56.9095C69.5687 56.9032 69.3655 56.8528 69.1747 56.7599C69.0696 56.7087 68.9708 56.6432 68.8813 56.5655C68.5774 56.3113 68.3909 55.9355 68.3709 55.535C68.3533 55.1803 68.4666 54.8345 68.69 54.5607C68.943 54.239 69.3276 54.0419 69.744 54.021C70.1322 54.0013 70.4989 54.1336 70.7849 54.3921C71.0707 54.6507 71.2387 55.0054 71.2577 55.3909C71.2771 55.7777 71.1454 56.1482 70.8868 56.4344C70.6283 56.7207 70.2737 56.8888 69.8881 56.9079C69.8636 56.9092 69.8386 56.9103 69.8132 56.9103ZM69.8178 54.1754C69.7959 54.1754 69.774 54.1758 69.752 54.1769C69.3807 54.1957 69.0382 54.3711 68.8121 54.6584C68.6124 54.9032 68.5113 55.2114 68.527 55.5272C68.5449 55.8841 68.711 56.2193 68.9827 56.4465C69.0632 56.5162 69.1504 56.5741 69.2433 56.6195C69.414 56.7024 69.5959 56.7476 69.7835 56.7535C69.8192 56.7554 69.8501 56.7534 69.8806 56.7518C70.2244 56.7346 70.5406 56.5848 70.771 56.3296C71.0018 56.0743 71.1191 55.7436 71.1019 55.3986V55.3984C71.0847 55.055 70.935 54.7385 70.68 54.508C70.4416 54.2921 70.1375 54.1754 69.8178 54.1754Z" fill="black"/>
<path d="M64.0758 60.7735C64.1136 61.5305 63.5339 62.1711 62.7804 62.2088C62.7471 62.2105 62.7137 62.2121 62.6803 62.2105C62.677 62.2107 62.677 62.2107 62.677 62.2107C62.4727 62.2041 62.2796 62.1536 62.1049 62.0688C62.0055 62.0203 61.9122 61.9581 61.8283 61.8853C61.5492 61.6519 61.3647 61.3034 61.345 60.9099C61.3276 60.5632 61.4419 60.2399 61.6466 59.9889C61.8791 59.6931 62.2371 59.4981 62.644 59.4778C63.3975 59.4403 64.0382 60.02 64.0758 60.7735Z" fill="#FFD200"/>
<path d="M62.7092 62.2891C62.6983 62.2891 62.6872 62.289 62.6763 62.2884C62.465 62.2821 62.2619 62.2318 62.0707 62.139C61.9657 62.0876 61.867 62.0222 61.7771 61.9444C61.4734 61.6902 61.2869 61.3142 61.2669 60.9139C61.2493 60.5592 61.3626 60.2133 61.586 59.9396C61.839 59.6178 62.2236 59.4208 62.64 59.3998C63.0271 59.3803 63.3951 59.5125 63.6809 59.771C63.9667 60.0296 64.1347 60.3843 64.1537 60.7698V60.7696C64.1731 61.1565 64.0414 61.527 63.7828 61.8133C63.5243 62.0996 63.1697 62.2677 62.7841 62.2868C62.7594 62.288 62.7344 62.2891 62.7092 62.2891ZM62.7138 59.5542C62.6919 59.5542 62.67 59.5547 62.648 59.5558C62.2767 59.5745 61.9342 59.75 61.7081 60.0372C61.5084 60.2821 61.4073 60.5903 61.423 60.9062C61.4409 61.2631 61.607 61.5983 61.8785 61.8255C61.9592 61.8952 62.0465 61.9532 62.1393 61.9985C62.3103 62.0815 62.492 62.1266 62.6794 62.1324C62.7152 62.134 62.7458 62.1323 62.7764 62.1307C63.1204 62.1135 63.4366 61.9636 63.667 61.7085C63.8978 61.4531 64.0153 61.1225 63.9979 60.7775V60.7773C63.9807 60.4338 63.831 60.1174 63.576 59.8869C63.3376 59.671 63.0335 59.5542 62.7138 59.5542Z" fill="black"/>
<path d="M61.9442 68.0352C57.3683 67.3713 52.5766 66.5411 47.5909 65.5067C40.5074 64.0322 33.9172 62.3291 27.8564 60.516L31.0697 59.3291L22.2979 57.7853C23.6479 57.574 25.6138 57.449 26.7503 57.1115C23.8604 56.4736 20.5064 55.5148 16.8902 54.0575C12.5917 52.3267 9.02907 50.3353 6.21338 48.5072C7.71194 48.1248 9.58521 47.4829 11.5821 46.3703C12.7692 45.7093 13.7771 45.0071 14.6098 44.347C12.1618 44.5931 9.71053 44.8392 7.25924 45.0888C9.78163 43.7895 12.5725 42.1757 15.4969 40.1609C15.5227 40.1429 15.5519 40.1246 15.5777 40.1067C15.7327 39.9987 15.8879 39.8906 16.0462 39.7824C16.1657 39.6996 16.282 39.6169 16.4014 39.5307C16.6727 39.34 16.9438 39.146 17.2147 38.9485C20.3529 36.6623 23.0124 34.3565 25.2255 32.2203C23.2415 31.9851 21.2576 31.7501 19.2735 31.5149C21.8759 30.2784 24.6799 28.7944 27.5996 27.0172C28.2517 26.6203 28.8871 26.2242 29.5054 25.8222C29.6868 25.7061 29.8682 25.5902 30.0495 25.4708C30.0561 25.4672 30.0592 25.4636 30.0658 25.46C30.3408 25.2791 30.616 25.0983 30.8844 24.9176C31.7771 24.3181 32.6397 23.72 33.4659 23.1272C33.537 23.0769 33.6078 23.0231 33.6789 22.9728C33.8853 22.8222 34.0851 22.6751 34.285 22.5281C34.3205 22.5029 34.3527 22.4779 34.3881 22.4528C35.2843 21.7896 36.1406 21.1317 36.9507 20.4862C35.0516 20.2101 33.1557 19.9338 31.2568 19.661C33.9518 18.8076 36.9601 17.6644 40.145 16.1113C42.1747 15.1208 44.0153 14.0927 45.6693 13.074C44.306 12.9482 42.9457 12.8225 41.5823 12.6967C43.4914 12.0999 45.5084 11.3906 47.6054 10.5437C48.3755 10.2344 49.1251 9.91613 49.8547 9.59892L49.8545 9.59564C52.3046 8.52055 54.5415 7.39577 56.5582 6.27881C56.499 6.36538 55.0474 8.49039 54.466 13.109C54.2121 15.1173 54.1253 17.5953 54.3847 20.5809C53.6928 19.1781 52.9977 17.7754 52.3025 16.3727C52.6305 18.6562 53.1406 21.2347 53.9445 24.0126C53.9489 24.0324 53.9534 24.0555 53.9611 24.0752C54.0094 24.2399 54.0578 24.4046 54.106 24.5661L54.1061 24.5693C54.1141 24.5957 54.1222 24.6253 54.1303 24.6517C54.2186 24.9481 54.3099 25.2344 54.4013 25.5239C55.3611 28.5414 56.4476 30.8169 57.5301 33.0159C56.3311 31.5649 55.1628 30.46 53.9636 29.0056C54.3766 31.385 54.9291 33.9448 55.6694 36.6489C56.7321 40.5236 57.9846 43.9776 59.2576 46.9794C57.8491 45.6157 56.4404 44.252 55.0318 42.8885C55.19 43.9803 55.3881 45.1338 55.6322 46.3383C55.7339 46.8346 55.8427 47.3407 55.962 47.8562C55.9967 48.015 56.0347 48.1736 56.0728 48.3353C56.0775 48.3619 56.0855 48.3881 56.0903 48.418C56.1491 48.6556 56.2078 48.8968 56.2702 49.141C56.2705 49.1477 56.2741 49.1508 56.2744 49.1575C56.4255 49.7718 56.5905 50.3986 56.7695 51.0349C57.1395 52.3536 57.54 53.6104 57.9569 54.7964C57.9689 54.836 57.9841 54.8719 57.9961 54.9114C58.0588 55.0955 58.1213 55.2763 58.1871 55.4535C58.2414 55.6046 58.2957 55.7556 58.3535 55.9065C58.8874 57.3607 59.4428 58.7069 59.9991 59.9392C58.6362 58.8875 57.2731 57.8325 55.9133 56.7772C56.3555 58.4031 57.0612 60.417 58.213 62.5958C59.4347 64.908 60.7918 66.7121 61.9442 68.0352Z" fill="#006658"/>
<path d="M62.1414 68.1425L61.933 68.1123C57.1524 67.4186 52.3217 66.5678 47.575 65.5827C40.9165 64.1968 34.2747 62.5172 27.8338 60.5906L27.6096 60.5234L30.7713 59.3557L21.8213 57.7802L22.2857 57.7076C22.7439 57.6358 23.2636 57.5752 23.814 57.5108C24.7419 57.4025 25.6976 57.2908 26.4214 57.1175C23.176 56.3837 19.9613 55.3789 16.8608 54.1295C13.1386 52.6307 9.5419 50.7611 6.17054 48.5721L6.021 48.4751L6.19382 48.431C8.06507 47.9535 9.8649 47.237 11.5439 46.3015C12.5207 45.7577 13.4633 45.1358 14.349 44.4512L14.236 44.4626C11.9149 44.6957 9.59066 44.9292 7.26688 45.1658L6.85638 45.2075L7.22328 45.0186C10.0743 43.5499 12.8431 41.8936 15.4525 40.0958L15.5332 40.0418C15.6883 39.9338 15.8435 39.8255 16.0021 39.7172C16.1209 39.635 16.2367 39.5525 16.3556 39.4666C16.6273 39.2756 16.8981 39.0818 17.1685 38.8845C19.936 36.8687 22.5876 34.6463 25.0522 32.2775L18.995 31.5597L19.2397 31.4436C22.072 30.0978 24.8708 28.5858 27.5588 26.9496C28.272 26.5154 28.8949 26.1249 29.4627 25.7558C29.6443 25.6397 29.8254 25.5239 30.0064 25.4047C30.0159 25.3979 30.0207 25.3948 30.0268 25.3911C30.2975 25.2129 30.5725 25.0323 30.8406 24.8518C31.7349 24.2513 32.6027 23.6495 33.4201 23.0629C33.4557 23.0377 33.4907 23.012 33.526 22.9862C33.5616 22.9599 33.5976 22.9337 33.6335 22.9082C33.839 22.7584 34.0389 22.6113 34.2387 22.4643L34.343 22.3882C35.1708 21.7755 35.9839 21.1529 36.7606 20.5365L36.0098 20.4274C34.4214 20.1963 32.8347 19.9656 31.2457 19.7373L30.9071 19.6892L31.2329 19.5861C34.274 18.6232 37.2608 17.4303 40.1106 16.0408C41.9314 15.152 43.7193 14.1734 45.4279 13.1299L41.186 12.7383L41.5587 12.6218C43.5892 11.987 45.6135 11.2635 47.5759 10.471C48.2422 10.2034 48.9426 9.90935 49.777 9.54729L49.8229 9.52385C52.1064 8.52174 54.3597 7.40681 56.52 6.21015L56.8088 6.05029L56.6226 6.32266C56.4691 6.54705 55.1068 8.64316 54.5433 13.1187C54.2566 15.3857 54.2294 17.8941 54.4624 20.574L54.4983 20.9881L54.3144 20.6151C53.6954 19.3604 53.0737 18.1055 52.4519 16.8507C52.8213 19.2723 53.3481 21.6719 54.0192 23.9905C54.0248 24.0163 54.0281 24.0327 54.0334 24.0466C54.0839 24.2175 54.1324 24.3821 54.1805 24.5435L54.2045 24.6283C54.2831 24.8918 54.3635 25.1467 54.4446 25.4029L54.4752 25.5003C55.417 28.4612 56.4905 30.7285 57.5997 32.9812L57.8945 33.5798L57.4693 33.0654C56.8743 32.3455 56.2766 31.6997 55.6984 31.0751C55.1734 30.5079 54.6324 29.9233 54.0906 29.2806C54.5275 31.7439 55.0835 34.2143 55.744 36.6282C56.7069 40.1388 57.9131 43.611 59.3289 46.9487L59.4793 47.3033L55.1418 43.1044C55.2995 44.1633 55.4896 45.245 55.7079 46.3227C55.8198 46.8681 55.9275 47.3641 56.0373 47.8386C56.0658 47.9688 56.0963 48.0979 56.1272 48.2288L56.1481 48.3174C56.1509 48.3326 56.1534 48.3431 56.1561 48.3538C56.1599 48.3704 56.1639 48.3876 56.1667 48.4057L56.2038 48.5546C56.2499 48.7415 56.2964 48.9306 56.345 49.1217L56.3463 49.1264C56.3486 49.1328 56.351 49.1423 56.3514 49.1539C56.501 49.7554 56.6674 50.386 56.8437 51.0134C57.1979 52.2757 57.5968 53.5397 58.0297 54.7701C58.0364 54.792 58.0427 54.8095 58.0491 54.8272C58.0563 54.8473 58.0636 54.8675 58.0699 54.8886C58.1316 55.0695 58.1939 55.2495 58.2592 55.4261C58.3138 55.5774 58.3677 55.728 58.4254 55.8785C58.9305 57.2542 59.4836 58.6093 60.0692 59.907L60.1978 60.192L59.9502 60.0009C58.6494 58.997 57.3484 57.9902 56.0503 56.9831C56.5907 58.9055 57.3407 60.7803 58.2811 62.5592C59.3087 64.5039 60.5608 66.329 62.0024 67.9839L62.1414 68.1425ZM28.1031 60.5079C34.4695 62.4053 41.0299 64.0609 47.6067 65.4299C52.2817 66.4 57.0382 67.2399 61.7478 67.9273C60.3561 66.3057 59.144 64.5251 58.1435 62.6319C57.1607 60.773 56.3849 58.8101 55.8373 56.7973L55.7759 56.5718L55.9606 56.7153C57.2384 57.7069 58.5193 58.6983 59.8 59.6871C59.2598 58.4726 58.7488 57.2114 58.2796 55.9334C58.2221 55.7829 58.1674 55.6313 58.113 55.4797C58.0474 55.3027 57.9847 55.1213 57.9216 54.9364C57.9152 54.9153 57.9089 54.8978 57.9025 54.8801C57.8953 54.86 57.888 54.8398 57.8817 54.8187C57.4489 53.5885 57.0488 52.3213 56.6936 51.0558C56.5168 50.4268 56.35 49.7943 56.198 49.1761C56.1972 49.1734 56.1944 49.1661 56.1928 49.1555C56.1444 48.9656 56.0983 48.7778 56.0523 48.5921L56.0141 48.4368C56.0105 48.4159 56.0073 48.4026 56.0044 48.3896C56.0009 48.3757 55.998 48.3621 55.9956 48.3485L55.9756 48.2648C55.9444 48.1329 55.9136 48.0029 55.8853 47.8727C55.7754 47.3978 55.6672 46.9006 55.5551 46.3538C55.3206 45.1959 55.1185 44.0336 54.9541 42.8993L54.9213 42.6729L59.0367 46.6568C57.6822 43.4211 56.5246 40.0633 55.5936 36.6693C54.9059 34.1565 54.3314 31.5825 53.8864 29.0189L53.8359 28.728L54.0236 28.9557C54.625 29.6852 55.2292 30.3379 55.8134 30.9692C56.2608 31.4526 56.7202 31.9488 57.1815 32.4827C56.1686 30.4069 55.1924 28.2704 54.3264 25.5476L54.2956 25.4501C54.2144 25.1931 54.1338 24.9376 54.0552 24.6738L54.0281 24.5791C53.9808 24.4205 53.9333 24.2589 53.8859 24.097C53.8797 24.0817 53.874 24.0569 53.8694 24.0345C53.151 21.5523 52.5977 18.9785 52.225 16.3838L52.1556 15.9006L52.3725 16.338C53.0069 17.6179 53.6414 18.8982 54.2733 20.1781C54.0764 17.6409 54.115 15.2613 54.3885 13.0991C54.8654 9.31024 55.9159 7.20445 56.3327 6.49205C54.2641 7.62761 52.1134 8.68769 49.935 9.64558L49.9351 9.64574L49.8859 9.67058C49.0298 10.0426 48.3142 10.3431 47.6346 10.6161C45.7879 11.3618 43.8859 12.0469 41.9758 12.6544L45.9098 13.0176L45.7104 13.1404C43.937 14.2325 42.0762 15.2556 40.1795 16.1813C37.4241 17.525 34.5406 18.6849 31.6043 19.6317C33.0808 19.8442 34.5559 20.0588 36.0323 20.2733L37.1407 20.4344L36.9996 20.5469C36.1787 21.2012 35.316 21.8634 34.4348 22.5155L34.3305 22.5915C34.1314 22.738 33.9314 22.8851 33.7249 23.0359C33.6888 23.0613 33.6538 23.0871 33.6185 23.1129C33.5827 23.1392 33.547 23.1654 33.511 23.1909C32.6927 23.7781 31.8235 24.3808 30.928 24.9823C30.6594 25.1631 30.3842 25.344 30.1087 25.5251C30.0995 25.5315 30.0945 25.535 30.0878 25.5389C29.9112 25.6556 29.7295 25.7717 29.5477 25.8878C28.9791 26.2575 28.355 26.6488 27.6404 27.0837C25.0252 28.6759 22.3048 30.1503 19.551 31.469L25.3983 32.1621L25.2799 32.2763C22.7766 34.6931 20.0785 36.959 17.2608 39.0117C16.9897 39.2094 16.7183 39.4037 16.4465 39.5945C16.3276 39.6805 16.2109 39.7635 16.0912 39.8466C15.9324 39.9549 15.7776 40.0629 15.6229 40.1707L15.5419 40.2249C13.0378 41.95 10.3878 43.5449 7.65894 44.9693C9.84708 44.747 12.0352 44.5271 14.2207 44.3076L14.8676 44.2426L14.6586 44.4082C13.705 45.1639 12.6828 45.8469 11.6204 46.4384C9.98131 47.3519 8.22758 48.0577 6.40525 48.5382C9.72504 50.6801 13.2616 52.5123 16.9195 53.9849C20.1115 55.2714 23.4247 56.2974 26.7673 57.0352L27.0625 57.1003L26.7728 57.1864C26.0143 57.4116 24.9052 57.5413 23.8327 57.6665C23.4701 57.709 23.1205 57.7496 22.7939 57.7932L31.3683 59.3024L28.1031 60.5079Z" fill="black"/>
<path d="M44.7694 20.7892C44.6931 20.7892 44.6234 20.7742 44.5628 20.7409C44.1323 20.5048 44.2603 19.6786 44.3723 19.2144C44.0435 19.5349 43.4138 20.0302 42.9281 19.6986C42.8306 19.6319 42.7733 19.5343 42.7575 19.4083C42.6756 18.7443 43.8527 17.4086 43.9029 17.3521L44.0198 17.4558C43.6912 17.8263 42.8516 18.8961 42.9127 19.3892C42.9225 19.4699 42.9564 19.5289 43.0163 19.5696C43.5733 19.9507 44.4631 18.8906 44.472 18.8798L44.7302 18.5687L44.6064 18.9537C44.4823 19.34 44.2461 20.3892 44.6377 20.604C45.0341 20.8215 46.1401 19.8777 46.533 19.4955L46.6419 19.6075C46.5055 19.7404 45.4074 20.7892 44.7694 20.7892Z" fill="black"/>
<path d="M48.8379 31.2963C48.7908 31.2963 48.7458 31.2891 48.7035 31.2734C48.2425 31.1044 48.2453 30.2684 48.2867 29.7924C48.0098 30.1584 47.461 30.742 46.9313 30.4871C46.8247 30.4359 46.7533 30.3479 46.7193 30.2257C46.5388 29.5816 47.5029 28.0844 47.5439 28.021L47.6751 28.1062C47.4056 28.5217 46.7355 29.705 46.8697 30.1837C46.8918 30.2618 46.934 30.3151 46.9991 30.3465C47.6082 30.639 48.3281 29.4585 48.3355 29.4466L48.5441 29.1008L48.4794 29.4994C48.4146 29.8997 48.338 30.973 48.7572 31.1266C49.1843 31.2831 50.1341 30.1835 50.4653 29.7469L50.5899 29.8413C50.4697 29.9996 49.4674 31.2963 48.8379 31.2963Z" fill="black"/>
<path d="M47.6513 51.5217C47.6499 51.5217 47.6485 51.5217 47.6473 51.5217C47.1563 51.5159 46.8805 50.7268 46.7608 50.2644C46.6215 50.7018 46.3006 51.4351 45.7144 51.3712C45.5969 51.3584 45.5005 51.2992 45.4274 51.1954C45.0425 50.6483 45.4525 48.9152 45.47 48.8418L45.6221 48.8782C45.5066 49.36 45.2692 50.6991 45.5552 51.1056C45.6019 51.172 45.6596 51.2079 45.7315 51.2159C46.3982 51.2925 46.6887 49.9359 46.6914 49.9222L46.7728 49.5261L46.8448 49.9241C46.917 50.3233 47.2024 51.3603 47.6491 51.3656C47.6501 51.3656 47.651 51.3656 47.6518 51.3656C48.1038 51.3656 48.6334 50.0164 48.7997 49.4954L48.9486 49.5431C48.8838 49.7458 48.2984 51.5217 47.6513 51.5217Z" fill="black"/>
<path d="M22.989 42.0855C22.9382 42.0855 22.8899 42.0772 22.8448 42.0597C22.3877 41.8806 22.4086 41.0449 22.4602 40.5701C22.1757 40.9298 21.6145 41.5022 21.0903 41.2353C20.9849 41.1817 20.9156 41.0923 20.884 40.9693C20.7174 40.3214 21.7139 38.8457 21.7564 38.7832L21.8855 38.871C21.6072 39.2806 20.9117 40.4493 21.0353 40.9306C21.0556 41.0092 21.0968 41.0634 21.1612 41.096C21.7634 41.4015 22.5091 40.2371 22.5166 40.2254L22.7327 39.8844L22.6594 40.2813C22.5858 40.6802 22.4862 41.7513 22.9021 41.9141C23.3225 42.0797 24.2991 41.001 24.6396 40.5718L24.762 40.6688C24.6391 40.8237 23.6192 42.0855 22.989 42.0855Z" fill="black"/>
<path d="M32.5853 58.1169C32.5347 58.1169 32.4864 58.1086 32.4412 58.0911C31.984 57.9119 32.0051 57.0764 32.0567 56.6016C31.7721 56.9615 31.2108 57.5337 30.6866 57.2667C30.5811 57.2131 30.5117 57.1237 30.4802 57.0007C30.3137 56.3529 31.3101 54.877 31.3526 54.8145L31.4816 54.9023C31.2033 55.3118 30.5078 56.4805 30.6316 56.9618C30.6517 57.0406 30.693 57.0948 30.7575 57.1276C31.3598 57.4333 32.1056 56.2686 32.1129 56.2569L32.3292 55.9158L32.2558 56.3129C32.1822 56.7118 32.0823 57.7827 32.4984 57.9456C32.9171 58.1107 33.8953 57.0324 34.2359 56.6032L34.3583 56.7002C34.2356 56.8549 33.2154 58.1169 32.5853 58.1169Z" fill="black"/>
<path d="M51.4574 62.5621C51.4553 62.5621 51.4536 62.5621 51.4516 62.5621C50.9605 62.554 50.6884 61.7635 50.571 61.3004C50.4298 61.7369 50.1004 62.4677 49.5194 62.4023C49.4019 62.3888 49.3056 62.3291 49.2331 62.2249C48.8509 61.6758 49.2695 59.945 49.2875 59.8716L49.4392 59.9088C49.3213 60.3899 49.0775 61.7278 49.3614 62.1355C49.4078 62.2022 49.4653 62.2385 49.5372 62.2468C50.2093 62.3229 50.5006 60.9712 50.5035 60.9576L50.587 60.5627L50.6568 60.9603C50.7272 61.36 51.0075 62.3985 51.4542 62.4059C51.4556 62.4059 51.4569 62.4059 51.458 62.4059C51.9097 62.4059 52.4451 61.0612 52.6139 60.5413L52.7625 60.5896C52.6965 60.792 52.1034 62.562 51.4574 62.5621Z" fill="black"/>
<path d="M58.9769 5.30274L60.5497 0.710024L56.6477 3.54416L52.6852 0.414062L54.7061 5.01599L49.9734 7.80215L54.2189 7.52369C52.8493 8.22422 51.394 8.91943 49.8545 9.59511L49.8546 9.59839C50.2017 10.1894 50.7511 10.9476 51.5945 11.6375C52.6438 12.501 53.7204 12.9085 54.466 13.1085C54.7343 10.9771 55.1874 9.38291 55.604 8.26891L56.162 12.6641L57.8676 7.71387L62.6985 8.28094L58.9769 5.30274Z" fill="#FFD200"/>
<path d="M54.5322 13.2072L54.4454 13.1839C53.3671 12.8944 52.3912 12.3943 51.5446 11.6977C50.8448 11.1255 50.2534 10.4323 49.7869 9.63787L49.7773 9.62131L49.774 9.54833L49.8227 9.52349C51.1747 8.93016 52.5258 8.29276 53.8437 7.62646L49.6499 7.90148L54.6064 4.98375L52.4875 0.158203L56.6495 3.44597L60.7036 0.501512L59.0686 5.27596L62.96 8.39043L57.9209 7.79897L56.1268 13.0066L55.5673 8.59951C55.0969 9.9368 54.7528 11.455 54.5434 13.1185L54.5322 13.2072ZM49.9652 9.63177C50.4154 10.3796 50.9797 11.0339 51.6438 11.5771C52.4504 12.2407 53.3772 12.7223 54.3998 13.0094C54.628 11.2422 55.0085 9.63865 55.5307 8.24151L55.6416 7.94508L56.1973 12.322L57.8142 7.62896L62.4367 8.17166L58.8852 5.32956L60.3956 0.918577L56.6456 3.64223L52.8828 0.669807L54.8058 5.04844L50.2964 7.70271L54.5912 7.42113L54.2543 7.59349C52.8523 8.31026 51.4097 8.99579 49.9652 9.63177Z" fill="black"/>
<path d="M54.1302 24.6513C53.3464 24.8877 52.5508 25.0879 51.7497 25.2449C51.3065 25.3407 50.8626 25.4196 50.4146 25.4856C50.2952 25.5049 50.1757 25.5209 50.0561 25.537C46.9651 25.9589 43.7794 25.757 40.7235 25.1443C39.2715 24.8525 37.8022 24.5481 36.3894 24.1041C35.4521 23.81 34.5503 23.4238 33.6787 22.9726C33.8851 22.8219 34.085 22.6749 34.2849 22.5278C35.2135 22.9829 36.1752 23.3627 37.182 23.6432C38.0734 23.8895 38.9704 24.112 39.8761 24.3075C40.3119 24.3994 40.7441 24.4847 41.1824 24.5597C41.1857 24.5596 41.1857 24.5596 41.1857 24.5596C42.8116 24.8527 44.4522 25.0382 46.0989 25.0794C48.7665 25.1466 51.3983 24.7644 53.9446 24.012C53.9489 24.0319 53.9535 24.055 53.9611 24.0747C54.0094 24.2394 54.0578 24.4041 54.106 24.5655L54.1061 24.5688C54.1141 24.5952 54.1222 24.6249 54.1302 24.6513Z" fill="black"/>
<path d="M42.1205 23.1945C42.1582 23.9489 41.5772 24.591 40.8228 24.6288C40.0683 24.6665 39.4263 24.0855 39.3885 23.3311C39.3508 22.5766 39.9318 21.9346 40.6862 21.8968C41.4408 21.8591 42.0829 22.4401 42.1205 23.1945Z" fill="#FFD200"/>
<path d="M40.7528 24.7086C40.394 24.7086 40.0529 24.5773 39.7847 24.3348C39.4985 24.0757 39.3302 23.7204 39.3109 23.3349C39.2916 22.9491 39.4236 22.5789 39.6827 22.2926C39.9418 22.0062 40.2971 21.8379 40.6826 21.8187C41.4747 21.7794 42.1591 22.3942 42.1988 23.1903C42.2387 23.9867 41.6232 24.6669 40.827 24.7066C40.802 24.708 40.7773 24.7086 40.7528 24.7086ZM40.7554 21.9731C40.7339 21.9731 40.7122 21.9735 40.6904 21.9746C40.3463 21.9918 40.0296 22.142 39.7985 22.3975C39.5674 22.653 39.4496 22.983 39.4667 23.3269C39.4839 23.671 39.6341 23.9879 39.8896 24.2189C40.1449 24.4501 40.4739 24.5672 40.8189 24.5506C41.5293 24.5151 42.0782 23.9085 42.0427 23.1983C42.0084 22.5098 41.4374 21.9731 40.7554 21.9731Z" fill="black"/>
<path d="M52.6557 26.465C52.6934 27.2195 52.1124 27.8616 51.3579 27.8994C50.6035 27.937 49.9614 27.356 49.9236 26.6016C49.8859 25.8472 50.4669 25.2051 51.2214 25.1673C51.976 25.1295 52.618 25.7106 52.6557 26.465Z" fill="#FFD200"/>
<path d="M51.2887 27.9792C50.5244 27.9792 49.8842 27.3773 49.8456 26.6055C49.8057 25.8094 50.4213 25.1292 51.2174 25.0893C52.0114 25.0484 52.6938 25.6648 52.7336 26.4612C52.7735 27.2575 52.158 27.9377 51.3618 27.9774C51.3373 27.9788 51.3129 27.9792 51.2887 27.9792ZM51.2902 25.2439C51.2687 25.2439 51.2469 25.2443 51.2252 25.2454C50.5149 25.2812 49.9659 25.8877 50.0014 26.5977C50.0372 27.3079 50.6481 27.8574 51.3537 27.8216C52.064 27.786 52.613 27.1795 52.5775 26.4693C52.5431 25.7806 51.9722 25.2439 51.2902 25.2439Z" fill="black"/>
<path d="M58.1866 55.4527C55.1701 55.56 52.1456 55.5774 49.1326 55.4171C46.2233 55.2616 43.3279 54.9183 40.4827 54.3049C40.0637 54.2156 39.6443 54.1195 39.2248 54.0168C39.1876 54.0087 39.1538 54.0002 39.1165 53.9888C35.9753 53.2064 32.9527 52.0573 30.0198 50.6928C27.056 49.3133 24.1901 47.618 21.5344 45.7149C21.3089 45.5524 21.0869 45.3895 20.8647 45.2236C20.5834 45.0137 20.3087 44.8001 20.0337 44.5832C20.0304 44.5834 20.0304 44.5834 20.0302 44.5801C19.2538 43.9604 18.5095 43.3123 17.7963 42.6226C16.9916 41.8371 16.2412 41.0021 15.4971 40.1602C15.5229 40.1422 15.5521 40.124 15.5779 40.106C15.7329 39.998 15.888 39.8899 16.0463 39.7817C16.8786 40.7162 17.7207 41.6469 18.6356 42.4971C19.9745 43.7372 21.418 44.8618 22.933 45.8793C24.7455 47.0958 26.6269 48.2218 28.5691 49.2245L28.5725 49.2277C28.7753 49.3378 28.981 49.4413 29.1868 49.5446C32.8078 51.3659 36.6325 52.7826 40.5935 53.6477C44.0305 54.3953 47.5309 54.7384 51.0459 54.8401L51.0491 54.84C51.6386 54.8606 52.2241 54.8715 52.8126 54.8756C52.816 54.8787 52.8158 54.8754 52.8158 54.8754C54.5314 54.89 56.2447 54.8578 57.9564 54.7958C57.9684 54.8353 57.9836 54.8712 57.9956 54.9108C58.0585 55.0948 58.121 55.2755 58.1866 55.4527Z" fill="black"/>
<path d="M30.8544 48.1408C30.8921 48.8952 30.3111 49.5373 29.5567 49.5751C28.8022 49.6128 28.1602 49.0318 28.1223 48.2774C28.0847 47.523 28.6657 46.8809 29.4201 46.8431C30.1745 46.8052 30.8168 47.3864 30.8544 48.1408Z" fill="#FFD200"/>
<path d="M29.4874 49.6549C28.7231 49.6549 28.0829 49.053 28.0443 48.2812C28.025 47.8954 28.1572 47.5253 28.4162 47.2389C28.6753 46.9525 29.0307 46.7842 29.4162 46.765C30.2083 46.7256 30.8927 47.3406 30.9324 48.1368C30.9722 48.9331 30.3567 49.6133 29.5606 49.653C29.5362 49.6543 29.5116 49.6549 29.4874 49.6549ZM29.4891 46.9195C29.4676 46.9195 29.4459 46.92 29.4241 46.9211C29.0801 46.9383 28.7632 47.0884 28.5322 47.3439C28.3011 47.5994 28.1833 47.9294 28.2003 48.2734C28.2361 48.9837 28.845 49.5341 29.5526 49.4972C30.263 49.4616 30.8119 48.8551 30.7764 48.1449C30.7419 47.4563 30.1709 46.9195 29.4891 46.9195Z" fill="black"/>
<path d="M40.9033 55.2228C40.9409 55.9773 40.3599 56.6194 39.6055 56.6572C38.8511 56.6948 38.209 56.1139 38.1712 55.3594C38.1335 54.605 38.7145 53.9629 39.4689 53.9251C40.2234 53.8873 40.8654 54.4684 40.9033 55.2228Z" fill="#FFD200"/>
<path d="M39.5362 56.737C38.7716 56.737 38.1316 56.1351 38.0931 55.3635C38.0533 54.5672 38.6688 53.887 39.4648 53.8473C40.2593 53.8048 40.9413 54.4228 40.981 55.219C41.0209 56.0153 40.4054 56.6955 39.6094 56.7352C39.5848 56.7364 39.5604 56.737 39.5362 56.737ZM39.5376 54.0017C39.5161 54.0017 39.4943 54.0021 39.4726 54.0032C38.7624 54.0389 38.2135 54.6453 38.2489 55.3555C38.2846 56.0656 38.8916 56.613 39.6012 56.5792C40.3114 56.5436 40.8604 55.9371 40.8249 55.2269C40.7905 54.5384 40.2196 54.0017 39.5376 54.0017Z" fill="black"/>
<path d="M53.3183 53.7472C53.356 54.5017 52.775 55.1438 52.0205 55.1816C51.2661 55.2192 50.624 54.6383 50.5862 53.8838C50.5485 53.1294 51.1295 52.4873 51.884 52.4495C52.6384 52.4118 53.2805 52.9928 53.3183 53.7472Z" fill="#FFD200"/>
<path d="M51.9505 55.2612C51.5915 55.2612 51.2503 55.13 50.9821 54.8875C50.6957 54.6284 50.5274 54.2732 50.5082 53.8877C50.4683 53.0914 51.0839 52.4112 51.88 52.3715C52.6715 52.3313 53.3565 52.947 53.3962 53.7432C53.4361 54.5395 52.8206 55.2197 52.0244 55.2594C51.9995 55.2606 51.9749 55.2612 51.9505 55.2612ZM51.953 52.5259C51.9314 52.5259 51.9097 52.5263 51.888 52.5274C51.1776 52.5629 50.6287 53.1695 50.6641 53.8797C50.6813 54.2237 50.8315 54.5404 51.087 54.7717C51.3423 55.0026 51.6706 55.1197 52.0164 55.1034C52.7268 55.0678 53.2757 54.4613 53.2403 53.7511C53.2057 53.0628 52.6348 52.5259 51.953 52.5259Z" fill="black"/>
<path d="M21.0444 45.8366C21.082 46.591 20.501 47.2331 19.7466 47.2709C18.9922 47.3086 18.3501 46.7276 18.3123 45.9732C18.2746 45.2188 18.8556 44.5767 19.61 44.5389C20.3645 44.501 21.0067 45.0822 21.0444 45.8366Z" fill="#FFD200"/>
<path d="M19.6773 47.3508C18.9127 47.351 18.2727 46.7489 18.2343 45.9773C18.1944 45.1809 18.8099 44.5007 19.6059 44.461C20.4002 44.4187 21.0823 45.0366 21.1221 45.8327C21.1415 46.2185 21.0095 46.5887 20.7504 46.875C20.4913 47.1614 20.136 47.3297 19.7505 47.3489C19.7259 47.3502 19.7016 47.3508 19.6773 47.3508ZM19.6787 44.6154C19.6572 44.6154 19.6355 44.6159 19.6137 44.617C18.9035 44.6526 18.3546 45.2591 18.39 45.9693C18.4257 46.6795 19.0332 47.2303 19.7423 47.193C20.0864 47.1758 20.4032 47.0256 20.6343 46.7701C20.8656 46.5146 20.9832 46.1846 20.966 45.8407C20.9317 45.1523 20.3607 44.6154 19.6787 44.6154Z" fill="black"/>
<path d="M56.0902 48.4174C56.1489 48.6551 56.2077 48.8962 56.27 49.1404C54.8158 48.6048 53.4224 47.9457 52.062 47.2114C50.7016 46.4771 49.372 45.6911 48.0795 44.8465C47.4993 44.4743 46.9285 44.0883 46.3669 43.6886C43.6579 41.7883 41.1271 39.6415 38.8181 37.2532C35.3988 33.7169 32.4273 29.7739 29.5054 25.8217C29.6868 25.7056 29.8682 25.5896 30.0495 25.4703C30.056 25.4667 30.0592 25.4631 30.0657 25.4595C31.514 27.4162 32.9719 29.3657 34.5008 31.2615C36.2359 33.4078 38.0101 35.5287 39.9725 37.4731C41.8787 39.3634 43.939 41.1257 46.1042 42.7124C48.3391 44.3557 50.7475 45.7931 53.2112 47.0639C54.062 47.4994 54.9304 47.8872 55.8136 48.2341C55.8989 48.2699 55.9875 48.3022 56.0727 48.3349C56.2703 48.4119 56.4646 48.4858 56.6622 48.5594C56.4578 48.5527 56.2649 48.5023 56.0902 48.4174Z" fill="black"/>
<path d="M48.0878 44.9416C48.1255 45.696 47.5445 46.3381 46.7901 46.3759C46.0356 46.4136 45.3936 45.8326 45.3557 45.0782C45.3181 44.3237 45.8991 43.6816 46.6535 43.6438C47.4079 43.6062 48.0502 44.1871 48.0878 44.9416Z" fill="#FFD200"/>
<path d="M46.72 46.4556C46.3611 46.4556 46.0196 46.3245 45.7517 46.0818C45.4652 45.8227 45.2969 45.4675 45.2777 45.0819C45.2379 44.2856 45.8534 43.6054 46.6495 43.5657C47.0378 43.5472 47.4055 43.6785 47.6918 43.9376C47.9782 44.1967 48.1465 44.5518 48.1658 44.9373C48.2056 45.7337 47.5901 46.4139 46.7939 46.4536C46.7692 46.455 46.7445 46.4556 46.72 46.4556ZM46.7233 43.7202C46.7014 43.7202 46.6795 43.7207 46.6575 43.7218C45.9471 43.7574 45.3982 44.3639 45.4337 45.0741C45.4508 45.4182 45.601 45.7349 45.8565 45.966C46.112 46.197 46.442 46.3135 46.786 46.2978C47.4963 46.2623 48.0453 45.6557 48.0098 44.9455C47.9926 44.6014 47.8424 44.2848 47.587 44.0535C47.3479 43.8373 47.0435 43.7202 46.7233 43.7202Z" fill="black"/>
<path d="M58.0612 47.1222C58.099 47.8791 57.5193 48.5198 56.7658 48.5574C56.7325 48.5591 56.699 48.5607 56.6656 48.5591C56.6623 48.5593 56.6623 48.5593 56.6623 48.5593C56.4581 48.5527 56.2649 48.5023 56.0902 48.4174C55.9909 48.3688 55.8976 48.3068 55.8137 48.234C55.5346 48.0005 55.35 47.652 55.3303 47.2586C55.313 46.9118 55.4272 46.5885 55.6319 46.3376C55.8644 46.0418 56.2224 45.8467 56.6293 45.8264C57.3828 45.7889 58.0235 46.3687 58.0612 47.1222Z" fill="#FFD200"/>
<path d="M56.6946 48.6377C56.6837 48.6377 56.6726 48.6376 56.6616 48.637C56.4501 48.6307 56.2469 48.5804 56.056 48.4877C55.9505 48.436 55.8519 48.3705 55.7625 48.293C55.4587 48.039 55.2723 47.663 55.2523 47.2625C55.2345 46.9081 55.3478 46.5623 55.5712 46.2882C55.8242 45.9664 56.2088 45.7694 56.6252 45.7485C57.4233 45.7081 58.0996 46.3232 58.1393 47.1183C58.1586 47.5052 58.0269 47.8758 57.7683 48.1619C57.5098 48.4482 57.1551 48.6163 56.7695 48.6354C56.7448 48.6367 56.7196 48.6377 56.6946 48.6377ZM56.698 45.9028C56.6765 45.9028 56.6551 45.9033 56.6332 45.9044C56.2619 45.9232 55.9194 46.0986 55.6933 46.3858C55.4936 46.6309 55.3926 46.9392 55.4084 47.2547C55.4262 47.6119 55.5923 47.9471 55.8639 48.1741C55.9442 48.2438 56.0314 48.3016 56.1246 48.3473C56.2954 48.4301 56.4771 48.4752 56.6648 48.4812C56.7007 48.483 56.7313 48.481 56.7618 48.4795C57.1056 48.4623 57.422 48.3124 57.6523 48.0572C57.8831 47.8019 58.0005 47.4712 57.9833 47.1262C57.9489 46.4387 57.3787 45.9028 56.698 45.9028Z" fill="black"/>
<path d="M37.0898 44.7152C37.0809 44.7172 37.0735 44.7166 37.0646 44.7186C34.326 44.9672 31.629 43.7798 29.7562 41.8048C29.0885 41.1015 28.4374 40.2058 27.9805 39.2318C27.2635 37.717 27.024 36.0137 27.9512 34.5631C28.8143 33.2218 30.0874 33.4757 31.2923 34.2076C32.3549 34.8547 33.3676 35.8765 33.9899 36.5055C34.5327 37.0468 35.1059 37.5457 35.7873 37.9015C36.884 38.4817 38.1449 38.5713 39.2559 39.0915C39.4753 39.1938 39.7155 39.3243 39.9539 39.4884C40.6459 39.9503 41.337 40.6222 41.5292 41.3391C42.093 43.486 38.6293 44.5727 37.0898 44.7152Z" fill="black"/>
<path d="M36.3538 44.8278C33.9302 44.8278 31.4914 43.7485 29.6993 41.8585C28.9687 41.0891 28.3332 40.1681 27.9094 39.2649C27.3162 38.0117 26.8304 36.1711 27.8852 34.5211C28.6448 33.3404 29.8049 33.213 31.3327 34.1409C32.4088 34.7963 33.4331 35.8318 34.0451 36.4506C34.4893 36.8935 35.0931 37.451 35.8233 37.8323C36.3992 38.137 37.0345 38.3084 37.6493 38.4741C38.1965 38.6216 38.7625 38.7742 39.2888 39.0207C39.5419 39.1388 39.7804 39.2744 39.9979 39.424C40.3995 39.6921 41.3619 40.4148 41.6044 41.319C41.7465 41.8601 41.6521 42.372 41.3236 42.8413C40.4739 44.055 38.2862 44.6814 37.1022 44.7922L37.0836 44.7947C36.8411 44.8168 36.5973 44.8278 36.3538 44.8278ZM37.0573 44.641L37.0833 44.7163L37.0734 44.6389L37.0825 44.6374C38.3226 44.5227 40.4187 43.8617 41.1956 42.7517C41.4964 42.322 41.5832 41.8535 41.4533 41.3593C41.2247 40.5067 40.2979 39.8124 39.9102 39.5535C39.699 39.4082 39.468 39.2769 39.2227 39.1624C38.7086 38.9217 38.1493 38.7708 37.6085 38.6252C36.9856 38.4572 36.3417 38.2834 35.7507 37.9707C35.0022 37.5798 34.3867 37.0119 33.9344 36.5611C33.327 35.947 32.3112 34.9199 31.2514 34.2745C29.7897 33.3866 28.7317 33.4946 28.0168 34.6055C27.0006 36.1951 27.4744 37.9806 28.051 39.1985C28.4677 40.087 29.0934 40.9933 29.8127 41.751C31.7524 43.7965 34.4596 44.8761 37.0573 44.641Z" fill="black"/>
<path d="M37.0893 44.7153C37.0804 44.7173 37.0731 44.7167 37.0641 44.7187C34.3255 44.9673 31.6286 43.7799 29.7557 41.8049C29.088 41.1015 28.4369 40.2058 27.98 39.2318C29.6587 38.5099 31.87 38.6713 33.81 39.8386C35.76 41.0084 36.9432 42.8865 37.0893 44.7153Z" fill="#FF2A2A"/>
<path d="M36.3536 44.8277C33.93 44.8277 31.4912 43.7484 29.6991 41.8584C28.9685 41.0889 28.333 40.1679 27.9092 39.2647L27.875 39.1918L27.9492 39.1599C29.7061 38.4044 31.9677 38.6387 33.8503 39.7713C35.7438 40.9072 37.0148 42.7991 37.1673 44.7088L37.1726 44.7756L37.0835 44.7947C36.841 44.8166 36.5971 44.8277 36.3536 44.8277ZM28.0858 39.2719C28.5021 40.1365 29.1129 41.0139 29.8125 41.7507C31.7391 43.7826 34.4233 44.8622 37.0048 44.6452C36.829 42.8108 35.5955 41.0005 33.7698 39.9053C31.956 38.8139 29.7866 38.5745 28.0858 39.2719Z" fill="black"/>
<path d="M37.5624 27.1522L37.1089 27.9932L40.8715 30.0224L41.325 29.1814L37.5624 27.1522Z" fill="black"/>
<path d="M40.901 30.1288L37.001 28.0255L37.5287 27.0469L41.4287 29.1502L40.901 30.1288ZM37.2127 27.9621L40.8374 29.9171L41.2168 29.2138L37.5921 27.2588L37.2127 27.9621Z" fill="black"/>
<path d="M55.3019 36.7202C52.6516 41.6344 47.4886 44.016 43.6489 42.1491C43.5706 42.1102 43.4925 42.0711 43.4156 42.0297C43.1657 41.895 42.9296 41.745 42.7037 41.5811L42.7015 41.58C42.5891 41.4967 42.4825 41.4134 42.3764 41.3239C41.8333 40.8692 41.3689 40.3244 40.9938 39.7113C39.3164 36.9788 39.3306 32.8784 41.324 29.1821L55.3019 36.7202Z" fill="black"/>
<path d="M46.4941 42.8707C45.4979 42.8707 44.5228 42.6607 43.6145 42.2191C43.5279 42.176 43.4524 42.1382 43.3781 42.0982C43.1334 41.9661 42.8907 41.8134 42.6574 41.6442C42.535 41.5539 42.4275 41.4692 42.3259 41.3834C41.7809 40.9273 41.3101 40.3782 40.9269 39.7519C39.1832 36.9115 39.312 32.748 41.2551 29.1449L41.2921 29.0762L55.4075 36.6885L55.3704 36.7573C53.3137 40.5707 49.7909 42.8707 46.4941 42.8707ZM41.3557 29.2877C39.4738 32.8268 39.356 36.8943 41.0601 39.67C41.4345 40.2819 41.8942 40.8182 42.4264 41.2636C42.5257 41.3473 42.6308 41.43 42.7477 41.5169C42.9769 41.6826 43.2134 41.8317 43.4524 41.9605C43.5253 41.9999 43.5992 42.0367 43.6734 42.0738C45.5209 42.9724 47.7248 42.9113 49.8881 41.9066C52.0416 40.9063 53.9238 39.0774 55.1954 36.7516L41.3557 29.2877Z" fill="black"/>
<path d="M49.9881 33.8543C47.5198 36.4275 44.9516 38.8791 42.3763 41.3233C41.8331 40.8686 41.3687 40.3239 40.9937 39.7107C43.3354 37.3927 45.7611 35.1749 48.0703 32.8198L49.9881 33.8543Z" fill="white"/>
<path d="M42.3793 41.4282L42.3259 41.3835C41.7807 40.9271 41.3099 40.3782 40.9267 39.7517L40.8945 39.6989L40.9384 39.6554C41.9241 38.6799 42.9409 37.7062 43.9243 36.7646C45.2777 35.4689 46.6772 34.1291 48.0142 32.7657L48.0554 32.7236L50.1154 33.8343L50.0443 33.9084C47.6204 36.4353 45.1617 38.7874 42.43 41.3803L42.3793 41.4282ZM41.0927 39.7226C41.4482 40.2924 41.8785 40.7951 42.3731 41.2187C45.0566 38.6715 47.4768 36.355 49.8604 33.8743L48.0848 32.9168C46.7586 34.2675 45.373 35.594 44.0326 36.8774C43.0642 37.8043 42.0634 38.7626 41.0927 39.7226Z" fill="black"/>
<path d="M51.2504 34.5346C48.7613 37.1258 46.1675 39.5892 43.6488 42.1483C43.5706 42.1094 43.4924 42.0704 43.4155 42.029C43.1657 41.8943 42.9296 41.7442 42.7036 41.5803C44.7374 39.6494 46.7718 37.7122 48.7513 35.7133C49.2927 35.1642 49.83 34.6129 50.362 34.0557L51.2504 34.5346Z" fill="white"/>
<path d="M43.6646 42.2439L43.6138 42.2186C43.528 42.1757 43.4525 42.1379 43.3782 42.0978C43.1335 41.9657 42.8908 41.813 42.6575 41.6438L42.5815 41.5888L42.6497 41.5241C44.8236 39.46 46.7791 37.5943 48.6958 35.6587C49.2871 35.0591 49.8135 34.517 50.3056 34.002L50.3467 33.959L51.3782 34.5153L51.3069 34.5895C49.8715 36.0837 48.377 37.5596 46.9317 38.9869C45.8696 40.0357 44.7713 41.12 43.7048 42.2039L43.6646 42.2439ZM42.8258 41.5721C43.0297 41.7155 43.24 41.846 43.4524 41.9603C43.5119 41.9924 43.5723 42.0229 43.6327 42.0534C44.6877 40.9822 45.7721 39.9113 46.8214 38.8752C48.2423 37.4721 49.7104 36.0223 51.1225 34.5548L50.3772 34.1527C49.8965 34.6556 49.3822 35.1847 48.8067 35.7682C46.9085 37.6851 44.9731 39.5332 42.8258 41.5721Z" fill="black"/>
<path d="M37.5605 27.1525C34.8562 32.167 29.5355 34.5444 25.6742 32.462C25.5547 32.3975 25.4398 32.3292 25.3265 32.2582C25.017 32.0654 24.7309 31.8496 24.466 31.6097C24.3613 31.5177 24.2615 31.4218 24.1663 31.3219C23.6683 30.8141 23.2556 30.2195 22.9303 29.5652C21.5859 26.8541 21.7244 23.0598 23.5826 19.6143L37.5605 27.1525Z" fill="black"/>
<path d="M28.7167 33.2915C27.6413 33.2915 26.5944 33.0472 25.6373 32.5311C25.5277 32.4719 25.4158 32.4064 25.2852 32.3248C24.9741 32.1311 24.6809 31.9099 24.4136 31.668C24.3086 31.5755 24.206 31.4771 24.1098 31.3761C23.6171 30.8735 23.1963 30.2757 22.8606 29.6005C21.4568 26.7689 21.7071 22.9284 23.5141 19.5775L23.5511 19.5088L37.6667 27.1211L37.6296 27.1899C35.578 30.9935 32.0143 33.2915 28.7167 33.2915ZM23.6147 19.7204C21.8651 23.0109 21.6283 26.7633 23.0005 29.5308C23.3289 30.1914 23.7399 30.7756 24.2221 31.2674C24.3161 31.3658 24.415 31.461 24.5176 31.551C24.7789 31.7877 25.0647 32.0031 25.3679 32.192C25.4955 32.2718 25.6048 32.3358 25.7113 32.3933C29.5101 34.442 34.7636 32.1053 37.4544 27.1841L23.6147 19.7204Z" fill="black"/>
<path d="M31.6601 23.9703C29.2302 26.5029 26.7035 28.9184 24.1667 31.322C23.6687 30.8142 23.256 30.2196 22.9307 29.5653C25.1908 27.3423 27.5196 25.2018 29.7423 22.936L31.6601 23.9703Z" fill="white"/>
<path d="M24.1646 31.4314L24.1107 31.3764C23.6172 30.873 23.1964 30.2753 22.8608 29.6001L22.8354 29.5493L22.8759 29.5096C23.7688 28.6315 24.6872 27.7519 25.5752 26.9014C26.9356 25.5986 28.3423 24.2515 29.6865 22.8812L29.7277 22.8394L31.7876 23.9502L31.7165 24.0243C29.2627 26.5817 26.6678 29.0599 24.2204 31.3786L24.1646 31.4314ZM23.0259 29.5811C23.3378 30.1967 23.7219 30.7447 24.1687 31.2121C26.5748 28.932 29.1205 26.4996 31.5322 23.9902L29.7568 23.0325C28.4234 24.3901 27.0306 25.724 25.6833 27.0144C24.809 27.8516 23.9052 28.717 23.0259 29.5811Z" fill="black"/>
<path d="M32.9223 24.6506C30.4346 27.2393 27.8441 29.7014 25.3268 32.258C25.0173 32.0651 24.7312 31.8493 24.4663 31.6095C26.4705 29.7079 28.471 27.7978 30.423 25.8292C30.9645 25.2801 31.5017 24.7288 32.0338 24.1714L32.9223 24.6506Z" fill="white"/>
<path d="M25.3387 32.3574L25.2855 32.3244C24.9744 32.1305 24.6813 31.9094 24.4139 31.6675L24.3516 31.6109L24.4128 31.553C26.3356 29.7286 28.3792 27.7798 30.3677 25.7744C30.9538 25.1803 31.4804 24.6383 31.9776 24.1177L32.0187 24.0747L33.0502 24.631L32.979 24.7052C31.5418 26.2007 30.0459 27.6781 28.5991 29.107C27.5407 30.1522 26.4463 31.2333 25.3829 32.3133L25.3387 32.3574ZM24.5817 31.6077C24.8096 31.808 25.0558 31.993 25.3152 32.1583C26.3656 31.0926 27.4448 30.0266 28.4891 28.9953C29.9112 27.5909 31.3809 26.1394 32.7949 24.6705L32.0495 24.2685C31.564 24.7765 31.0496 25.3056 30.4789 25.8842C28.5097 27.8699 26.4875 29.7995 24.5817 31.6077Z" fill="black"/>
<path d="M35.5583 32.9723C35.0054 33.7128 35.2063 34.7979 36.0072 35.3959C36.808 35.9939 37.9055 35.8783 38.4585 35.1377C39.0113 34.3972 38.8104 33.3121 38.0095 32.7141C37.2087 32.1163 36.1113 32.2317 35.5583 32.9723Z" fill="#FFD200"/>
<path d="M37.1384 35.8559C36.7345 35.8559 36.3184 35.7259 35.9604 35.4585C35.5572 35.1576 35.2866 34.7291 35.1981 34.2519C35.1094 33.7725 35.215 33.3013 35.4956 32.9257C35.7761 32.5499 36.1977 32.3148 36.6828 32.2637C37.164 32.213 37.653 32.3508 38.0562 32.6517C38.8903 33.2744 39.0987 34.4108 38.521 35.1846C38.1912 35.6262 37.6755 35.8559 37.1384 35.8559ZM36.8795 32.4097C36.8193 32.4097 36.7592 32.4128 36.6992 32.4192C36.258 32.4656 35.8752 32.6786 35.621 33.0191C35.3667 33.3598 35.2712 33.7875 35.3519 34.2234C35.4331 34.6619 35.6824 35.056 36.0538 35.3335C36.8189 35.9045 37.8696 35.7959 38.3959 35.0913C38.922 34.3864 38.7278 33.3484 37.9629 32.7769C37.6416 32.5372 37.2627 32.4097 36.8795 32.4097Z" fill="black"/>
<path d="M37.2415 32.9653C37.6331 33.5775 36.6823 34.1872 36.2899 33.5739C35.8985 32.9615 36.8493 32.352 37.2415 32.9653Z" fill="white"/>
<path d="M34.5943 0.000767635L33.0127 0.449219L35.3163 8.57345L36.8979 8.125L34.5943 0.000767635Z" fill="#009CF7"/>
<path d="M15.2642 12.1427L14.3081 13.479L20.6291 18.0015L21.5852 16.6652L15.2642 12.1427Z" fill="#009CF7"/>
<path d="M24.0613 3.95197L22.6387 4.7749L27.1783 12.6229L28.6009 11.7999L24.0613 3.95197Z" fill="#009CF7"/>
</g>
<defs>
<clipPath id="clip0_43_1351">
<rect width="80" height="80" fill="white"/>
</clipPath>
</defs>
</svg>
